<mxfile host="app.diagrams.net" agent="Mozilla/5.0 (Macintosh; Intel Mac OS X 10_15_7) AppleWebKit/537.36 (KHTML, like Gecko) Chrome/127.0.0.0 Safari/537.36" version="24.7.7">
  <diagram id="prtHgNgQTEPvFCAcTncT" name="Page-1">
    <mxGraphModel dx="4014" dy="2211" grid="1" gridSize="10" guides="1" tooltips="1" connect="1" arrows="1" fold="1" page="1" pageScale="1" pageWidth="827" pageHeight="1169" math="0" shadow="0">
      <root>
        <mxCell id="0" />
        <mxCell id="1" parent="0" />
        <mxCell id="TcersztS0ECEA-ve25YO-69" value="" style="rounded=1;whiteSpace=wrap;html=1;arcSize=2;fillColor=#f5f5f5;fontColor=#333333;strokeColor=#666666;" vertex="1" parent="1">
          <mxGeometry x="-110" y="80" width="1310" height="1420" as="geometry" />
        </mxCell>
        <mxCell id="TcersztS0ECEA-ve25YO-27" value="" style="rounded=1;whiteSpace=wrap;html=1;fillColor=#d80073;fontColor=#ffffff;strokeColor=#A50040;arcSize=1;" vertex="1" parent="1">
          <mxGeometry x="-9" y="170" width="859" height="930" as="geometry" />
        </mxCell>
        <UserObject label="User" name="Tessa Miller" position="CFO" location="Office 1" email="me@example.com" placeholders="1" link="https://www.draw.io" id="dNxyNK7c78bLwvsdeMH5-12">
          <mxCell style="label;image=https://cdn3.iconfinder.com/data/icons/user-avatars-1/512/users-3-128.png;whiteSpace=wrap;html=1;rounded=0;glass=0;treeMoving=1;treeFolding=1;fillColor=#D8567D;fontColor=#ffffff;strokeColor=#A50040;" parent="1" vertex="1">
            <mxGeometry x="-380" y="375" width="210" height="70" as="geometry" />
          </mxCell>
        </UserObject>
        <mxCell id="TcersztS0ECEA-ve25YO-2" value="" style="rounded=1;whiteSpace=wrap;html=1;fillColor=#5DE874;strokeColor=#82b366;" vertex="1" parent="1">
          <mxGeometry x="35" y="300" width="755" height="220" as="geometry" />
        </mxCell>
        <mxCell id="TcersztS0ECEA-ve25YO-3" value="UI Layer" style="text;html=1;align=center;verticalAlign=middle;whiteSpace=wrap;rounded=0;fontColor=#FFFFFF;fontStyle=1;fontSize=23;" vertex="1" parent="1">
          <mxGeometry x="80" y="315" width="130" height="30" as="geometry" />
        </mxCell>
        <mxCell id="TcersztS0ECEA-ve25YO-4" value="UI Elements" style="rounded=1;whiteSpace=wrap;html=1;fillColor=#f5f5f5;fontColor=#333333;strokeColor=#666666;" vertex="1" parent="1">
          <mxGeometry x="70" y="365" width="670" height="50" as="geometry" />
        </mxCell>
        <mxCell id="TcersztS0ECEA-ve25YO-5" value="UI State" style="rounded=1;whiteSpace=wrap;html=1;fillColor=#dae8fc;strokeColor=#6c8ebf;" vertex="1" parent="1">
          <mxGeometry x="70" y="425" width="670" height="50" as="geometry" />
        </mxCell>
        <mxCell id="TcersztS0ECEA-ve25YO-6" value="" style="rounded=1;whiteSpace=wrap;html=1;fillColor=#AB6CFC;strokeColor=#6c8ebf;" vertex="1" parent="1">
          <mxGeometry x="35" y="585" width="755" height="470" as="geometry" />
        </mxCell>
        <mxCell id="TcersztS0ECEA-ve25YO-7" value="Data Layer" style="text;html=1;align=center;verticalAlign=middle;whiteSpace=wrap;rounded=0;fontColor=#FFFFFF;fontStyle=1;fontSize=23;" vertex="1" parent="1">
          <mxGeometry x="80" y="620" width="130" height="30" as="geometry" />
        </mxCell>
        <mxCell id="TcersztS0ECEA-ve25YO-9" value="" style="rounded=1;whiteSpace=wrap;html=1;fillColor=#dae8fc;strokeColor=#6c8ebf;" vertex="1" parent="1">
          <mxGeometry x="110" y="825" width="610" height="185" as="geometry" />
        </mxCell>
        <mxCell id="TcersztS0ECEA-ve25YO-11" value="&lt;span style=&quot;color: rgb(0, 0, 0);&quot;&gt;Datasource&lt;/span&gt;" style="rounded=1;whiteSpace=wrap;html=1;fillColor=#f5f5f5;fontColor=#333333;strokeColor=#666666;" vertex="1" parent="1">
          <mxGeometry x="120" y="855" width="580" height="30" as="geometry" />
        </mxCell>
        <mxCell id="TcersztS0ECEA-ve25YO-12" value="Remote Server" style="rounded=1;whiteSpace=wrap;html=1;" vertex="1" parent="1">
          <mxGeometry x="125" y="905" width="145" height="40" as="geometry" />
        </mxCell>
        <mxCell id="TcersztS0ECEA-ve25YO-21" value="" style="rounded=1;whiteSpace=wrap;html=1;fillColor=#f8cecc;strokeColor=#b85450;" vertex="1" parent="1">
          <mxGeometry x="110" y="670" width="610" height="130" as="geometry" />
        </mxCell>
        <mxCell id="TcersztS0ECEA-ve25YO-22" value="Repository" style="rounded=1;whiteSpace=wrap;html=1;fillColor=#f5f5f5;fontColor=#333333;strokeColor=#666666;" vertex="1" parent="1">
          <mxGeometry x="120" y="680" width="590" height="30" as="geometry" />
        </mxCell>
        <mxCell id="TcersztS0ECEA-ve25YO-23" value="User Repository" style="rounded=1;whiteSpace=wrap;html=1;fillColor=#f5f5f5;fontColor=#333333;strokeColor=#666666;" vertex="1" parent="1">
          <mxGeometry x="120" y="720" width="120" height="30" as="geometry" />
        </mxCell>
        <mxCell id="TcersztS0ECEA-ve25YO-24" value="Account Repository" style="rounded=1;whiteSpace=wrap;html=1;fillColor=#f5f5f5;fontColor=#333333;strokeColor=#666666;" vertex="1" parent="1">
          <mxGeometry x="260" y="720" width="110" height="30" as="geometry" />
        </mxCell>
        <mxCell id="TcersztS0ECEA-ve25YO-25" value="" style="shape=flexArrow;endArrow=classic;html=1;rounded=0;exitX=0.5;exitY=1;exitDx=0;exitDy=0;entryX=0.5;entryY=0;entryDx=0;entryDy=0;fillColor=#dae8fc;strokeColor=#6c8ebf;" edge="1" parent="1" source="TcersztS0ECEA-ve25YO-2" target="TcersztS0ECEA-ve25YO-6">
          <mxGeometry width="50" height="50" relative="1" as="geometry">
            <mxPoint x="390" y="600" as="sourcePoint" />
            <mxPoint x="440" y="550" as="targetPoint" />
          </mxGeometry>
        </mxCell>
        <mxCell id="TcersztS0ECEA-ve25YO-26" value="..." style="rounded=1;whiteSpace=wrap;html=1;fillColor=#f5f5f5;fontColor=#333333;strokeColor=#666666;" vertex="1" parent="1">
          <mxGeometry x="390" y="720" width="110" height="30" as="geometry" />
        </mxCell>
        <mxCell id="TcersztS0ECEA-ve25YO-28" value="Application Module" style="text;html=1;align=center;verticalAlign=middle;whiteSpace=wrap;rounded=0;fontColor=#FFFFFF;fontStyle=1;fontSize=23;" vertex="1" parent="1">
          <mxGeometry x="35" y="230" width="250" height="30" as="geometry" />
        </mxCell>
        <mxCell id="TcersztS0ECEA-ve25YO-29" value="" style="rounded=1;whiteSpace=wrap;html=1;fillColor=#FCCC8D;fontColor=#ffffff;strokeColor=#6F0000;" vertex="1" parent="1">
          <mxGeometry x="-9" y="1160" width="859" height="240" as="geometry" />
        </mxCell>
        <mxCell id="TcersztS0ECEA-ve25YO-31" value="Infrastructure" style="text;html=1;align=center;verticalAlign=middle;whiteSpace=wrap;rounded=0;fontColor=#FFFFFF;fontStyle=1;fontSize=23;" vertex="1" parent="1">
          <mxGeometry x="20" y="1180" width="210" height="30" as="geometry" />
        </mxCell>
        <mxCell id="TcersztS0ECEA-ve25YO-34" value="" style="rounded=1;whiteSpace=wrap;html=1;fillColor=#3399FF;" vertex="1" parent="1">
          <mxGeometry x="920" y="160" width="150" height="1230" as="geometry" />
        </mxCell>
        <mxCell id="TcersztS0ECEA-ve25YO-35" value="Dependency&lt;br&gt;Injection Framwork" style="text;html=1;align=center;verticalAlign=middle;whiteSpace=wrap;rounded=0;fontColor=#FFFFFF;fontStyle=1;fontSize=23;" vertex="1" parent="1">
          <mxGeometry x="930" y="700" width="130" height="45" as="geometry" />
        </mxCell>
        <mxCell id="TcersztS0ECEA-ve25YO-42" value="" style="shape=flexArrow;endArrow=classic;html=1;rounded=0;exitX=0.5;exitY=1;exitDx=0;exitDy=0;entryX=0.5;entryY=0;entryDx=0;entryDy=0;fillColor=#f8cecc;strokeColor=#b85450;" edge="1" parent="1" source="TcersztS0ECEA-ve25YO-27" target="TcersztS0ECEA-ve25YO-29">
          <mxGeometry width="50" height="50" relative="1" as="geometry">
            <mxPoint x="590" y="670" as="sourcePoint" />
            <mxPoint x="640" y="620" as="targetPoint" />
          </mxGeometry>
        </mxCell>
        <mxCell id="TcersztS0ECEA-ve25YO-45" value="Networking Request" style="rounded=1;whiteSpace=wrap;html=1;" vertex="1" parent="1">
          <mxGeometry x="40" y="1250" width="130" height="40" as="geometry" />
        </mxCell>
        <mxCell id="TcersztS0ECEA-ve25YO-46" value="Database wrapper" style="rounded=1;whiteSpace=wrap;html=1;" vertex="1" parent="1">
          <mxGeometry x="215" y="1250" width="130" height="40" as="geometry" />
        </mxCell>
        <mxCell id="TcersztS0ECEA-ve25YO-47" value="Common Tools" style="rounded=1;whiteSpace=wrap;html=1;" vertex="1" parent="1">
          <mxGeometry x="40" y="1320" width="130" height="40" as="geometry" />
        </mxCell>
        <mxCell id="TcersztS0ECEA-ve25YO-48" value="Image Cache" style="rounded=1;whiteSpace=wrap;html=1;" vertex="1" parent="1">
          <mxGeometry x="390" y="1250" width="130" height="40" as="geometry" />
        </mxCell>
        <mxCell id="TcersztS0ECEA-ve25YO-49" value="...." style="rounded=1;whiteSpace=wrap;html=1;" vertex="1" parent="1">
          <mxGeometry x="550" y="1250" width="130" height="40" as="geometry" />
        </mxCell>
        <mxCell id="TcersztS0ECEA-ve25YO-50" value="" style="shape=flexArrow;endArrow=classic;html=1;rounded=0;entryX=0;entryY=0.5;entryDx=0;entryDy=0;exitX=1;exitY=0.5;exitDx=0;exitDy=0;fillColor=#60a917;strokeColor=#2D7600;" edge="1" parent="1" source="dNxyNK7c78bLwvsdeMH5-12" target="TcersztS0ECEA-ve25YO-2">
          <mxGeometry width="50" height="50" relative="1" as="geometry">
            <mxPoint x="-110" y="370" as="sourcePoint" />
            <mxPoint x="-60" y="320" as="targetPoint" />
          </mxGeometry>
        </mxCell>
        <mxCell id="TcersztS0ECEA-ve25YO-52" value="Local datasource" style="rounded=1;whiteSpace=wrap;html=1;" vertex="1" parent="1">
          <mxGeometry x="310" y="905" width="145" height="40" as="geometry" />
        </mxCell>
        <mxCell id="TcersztS0ECEA-ve25YO-53" value="......" style="rounded=1;whiteSpace=wrap;html=1;" vertex="1" parent="1">
          <mxGeometry x="480" y="905" width="145" height="40" as="geometry" />
        </mxCell>
        <mxCell id="TcersztS0ECEA-ve25YO-54" value="" style="endArrow=classic;html=1;rounded=0;dashed=1;strokeWidth=6;entryX=0;entryY=0.5;entryDx=0;entryDy=0;" edge="1" parent="1" source="TcersztS0ECEA-ve25YO-2" target="TcersztS0ECEA-ve25YO-55">
          <mxGeometry width="50" height="50" relative="1" as="geometry">
            <mxPoint x="800" y="290" as="sourcePoint" />
            <mxPoint x="1480" y="410" as="targetPoint" />
          </mxGeometry>
        </mxCell>
        <mxCell id="TcersztS0ECEA-ve25YO-55" value="" style="rounded=1;whiteSpace=wrap;html=1;fillColor=#e1d5e7;strokeColor=#9673a6;arcSize=2;" vertex="1" parent="1">
          <mxGeometry x="1410" y="90" width="480" height="600" as="geometry" />
        </mxCell>
        <mxCell id="TcersztS0ECEA-ve25YO-57" value="User Event" style="rounded=1;whiteSpace=wrap;html=1;fillColor=#ffe6cc;strokeColor=#d79b00;" vertex="1" parent="1">
          <mxGeometry x="1454" y="300" width="120" height="60" as="geometry" />
        </mxCell>
        <mxCell id="TcersztS0ECEA-ve25YO-58" value="State managements" style="rounded=1;whiteSpace=wrap;html=1;fillColor=#ffe6cc;strokeColor=#d79b00;" vertex="1" parent="1">
          <mxGeometry x="1454" y="220" width="120" height="60" as="geometry" />
        </mxCell>
        <mxCell id="TcersztS0ECEA-ve25YO-59" value="UI Layer Design Pattern" style="text;html=1;align=center;verticalAlign=middle;whiteSpace=wrap;rounded=0;fontColor=#FFFFFF;fontStyle=1;fontSize=23;" vertex="1" parent="1">
          <mxGeometry x="1444" y="140" width="386" height="30" as="geometry" />
        </mxCell>
        <mxCell id="TcersztS0ECEA-ve25YO-62" value="Data Model map" style="rounded=1;whiteSpace=wrap;html=1;fillColor=#ffe6cc;strokeColor=#d79b00;" vertex="1" parent="1">
          <mxGeometry x="1454" y="455" width="120" height="60" as="geometry" />
        </mxCell>
        <mxCell id="TcersztS0ECEA-ve25YO-63" value="UI Update" style="rounded=1;whiteSpace=wrap;html=1;fillColor=#ffe6cc;strokeColor=#d79b00;" vertex="1" parent="1">
          <mxGeometry x="1454" y="375" width="120" height="60" as="geometry" />
        </mxCell>
        <mxCell id="TcersztS0ECEA-ve25YO-65" value="VIPER" style="rounded=1;whiteSpace=wrap;html=1;fillColor=#1ba1e2;fontColor=#ffffff;strokeColor=#006EAF;" vertex="1" parent="1">
          <mxGeometry x="1670" y="220" width="150" height="95" as="geometry" />
        </mxCell>
        <mxCell id="TcersztS0ECEA-ve25YO-66" value="MVVM/MVP" style="rounded=1;whiteSpace=wrap;html=1;fillColor=#1ba1e2;fontColor=#ffffff;strokeColor=#006EAF;" vertex="1" parent="1">
          <mxGeometry x="1670" y="343.75" width="150" height="91.25" as="geometry" />
        </mxCell>
        <mxCell id="TcersztS0ECEA-ve25YO-67" value="Page transition" style="rounded=1;whiteSpace=wrap;html=1;fillColor=#ffe6cc;strokeColor=#d79b00;" vertex="1" parent="1">
          <mxGeometry x="1454" y="540" width="120" height="60" as="geometry" />
        </mxCell>
        <mxCell id="TcersztS0ECEA-ve25YO-68" value="MVC" style="rounded=1;whiteSpace=wrap;html=1;fillColor=#1ba1e2;fontColor=#ffffff;strokeColor=#006EAF;" vertex="1" parent="1">
          <mxGeometry x="1670" y="460" width="150" height="95" as="geometry" />
        </mxCell>
      </root>
    </mxGraphModel>
  </diagram>
</mxfile>
